<svg width="24" height="20" viewBox="0 0 24 20" fill="none" xmlns="http://www.w3.org/2000/svg">
<path d="M18 1.09747e-07L24 10L18 20H6L0 10L6 0L18 1.09747e-07Z" fill="#EA473F"/>
<path d="M12.3219 12.5113C12.6757 12.5113 12.9702 12.2505 13 11.9113L13.4599 6.62522C13.4867 6.31864 13.3787 6.01557 13.1624 5.78922C12.9464 5.56315 12.6414 5.43433 12.3219 5.43433C12.0024 5.43433 11.6974 5.56315 11.4813 5.78922C11.2651 6.01557 11.1571 6.31864 11.1839 6.62522L11.6438 11.9113C11.6736 12.2505 11.9681 12.5113 12.3219 12.5113Z" fill="white"/>
<path d="M12.3219 13.0054C11.9124 13.0054 11.5806 13.3246 11.5806 13.7186C11.5806 14.1126 11.9124 14.4319 12.3219 14.4319C12.7313 14.4319 13.0631 14.1126 13.0631 13.7186C13.0631 13.3246 12.7313 13.0054 12.3219 13.0054Z" fill="white"/>
</svg>
