<svg width="24" height="20" viewBox="0 0 24 20" fill="none" xmlns="http://www.w3.org/2000/svg">
<path d="M18 1.09747e-07L24 10L18 20H6L0 10L6 0L18 1.09747e-07Z" fill="#EA473F"/>
<g clip-path="url(#clip0)">
<path d="M11.6 11.3329V7.36682C11.4875 7.37722 11.3764 7.39477 11.2633 7.39997H8.0252C7.84581 7.39997 7.70022 7.54556 7.70022 7.72495V8.04993H6.72528C6.54589 8.04993 6.4003 8.19552 6.4003 8.37491V10.3248C6.4003 10.5042 6.54589 10.6498 6.72528 10.6498H7.70022V10.9748C7.70022 11.1541 7.84581 11.2997 8.0252 11.2997H8.22213L9.52855 14.7822C9.6085 14.9909 9.78724 15.1423 10.0069 15.1865C10.0505 15.1956 10.094 15.2001 10.1369 15.2001C10.3105 15.2001 10.4755 15.1312 10.5938 15.0078L11.3744 14.2337C11.574 14.0341 11.6214 13.7228 11.494 13.4816L10.4034 11.2997H11.2665C11.3783 11.3049 11.4888 11.3225 11.6 11.3329Z" fill="white"/>
<path d="M16.7464 4.95734C16.7399 4.94629 16.734 4.93719 16.7256 4.92679C16.6898 4.88129 16.645 4.84425 16.5897 4.8228C16.5878 4.82215 16.5865 4.81955 16.5845 4.8189C16.578 4.81695 16.5722 4.8202 16.5657 4.81825C16.5364 4.8098 16.5072 4.80005 16.4747 4.80005C16.4526 4.80005 16.4331 4.8085 16.4117 4.81305C16.3993 4.81565 16.3876 4.8163 16.3753 4.8202C16.3194 4.8384 16.2713 4.86959 16.2329 4.91249C16.2303 4.91509 16.2264 4.91574 16.2238 4.91834C15.2105 6.14871 13.7975 6.97156 12.25 7.27314V11.427C13.7975 11.7286 15.2105 12.5508 16.2238 13.7812C16.2264 13.7844 16.231 13.7857 16.2342 13.7896C16.257 13.815 16.2849 13.8351 16.3148 13.852C16.3246 13.8579 16.3324 13.8663 16.3421 13.8709C16.3831 13.8884 16.4273 13.8995 16.4747 13.8995C16.5118 13.8995 16.5481 13.893 16.5845 13.8806C16.5865 13.88 16.5878 13.8774 16.5897 13.8767C16.645 13.8553 16.6898 13.8189 16.7256 13.7727C16.7334 13.7623 16.7392 13.7532 16.7464 13.7422C16.7776 13.6921 16.7997 13.6369 16.7997 13.5745V5.12503C16.7997 5.06263 16.7776 5.00739 16.7464 4.95734Z" fill="white"/>
</g>
<defs>
<clipPath id="clip0">
<rect x="6.39999" y="4.80005" width="10.4" height="10.4" fill="white"/>
</clipPath>
</defs>
</svg>
